# xmcd
#
# Track frame offsets:
#	150
#	17884
#	34026
#	52454
#	72480
#	89698
#	107552
#	124119
#	136471
#	150736
#	169200
#	189373
#	210803
#	230080
#	250558
#	267629
#	288259
#
# Disc length: 4289 seconds
#
# Revision: 1
# Processed by: cddbd v1.5.2PL0 Copyright (c) Steve Scherf et al.
# Submitted via: audiograbber 1.83.01
#
DISCID=fb10bf11
DTITLE=Turin Brakes - Bottled At Source - The best of the Source years
DYEAR=2009
DGENRE=Alternative Rock
TTITLE0=Painkiller
TTITLE1=Underdog (Save Me)
TTITLE2=Emergency 72
TTITLE3=Long Distance
TTITLE4=The Door
TTITLE5=5 Mile (These Are The Days)
TTITLE6=Feeling Oblivion
TTITLE7=Average Man
TTITLE8=Over And Over
TTITLE9=Mind Over Money (Extended Radio Edit)
TTITLE10=Fighting For A Dream
TTITLE11=Dark On Fire
TTITLE12=Red Moon
TTITLE13=Something In My Eye
TTITLE14=Stalker
TTITLE15=Last Chance
TTITLE16=Ether Song
EXTD=
EXTT0=
EXTT1=
EXTT2=
EXTT3=
EXTT4=
EXTT5=
EXTT6=
EXTT7=
EXTT8=
EXTT9=
EXTT10=
EXTT11=
EXTT12=
EXTT13=
EXTT14=
EXTT15=
EXTT16=
PLAYORDER=
